<?xml version="1.0" encoding="UTF-8"?>
<svg xmlns="http://www.w3.org/2000/svg" id="Layer_1" data-name="Layer 1" viewBox="0 0 24 24">
  <path d="M14.743,10.186c.311,.246,1.544,1.2,3.021,1.2,1.643,0,2.98-1.147,3.374-1.495,1.219-1.073,1.845-2.254,1.862-3.512,.016-1.264-.61-2.301-1.202-2.849-.626-.581-1.449-.897-2.271-.862-.661,.027-1.276,.278-1.762,.712-.485-.435-1.101-.686-1.762-.712-.82-.037-1.645,.281-2.272,.862-.613,.569-1.25,1.642-1.199,2.948,.053,1.341,.797,2.589,2.211,3.708Z"/>
  <path d="M21.815,14.342c-.753-.587-1.718-.791-2.65-.555l-.33,.085c-.013,1.432-.688,2.782-1.839,3.653-.82,.619-1.808,.933-2.799,.933-.856,0-1.714-.234-2.465-.707l-3.994-2.511c-.468-.294-.608-.911-.314-1.379,.294-.467,.912-.608,1.379-.314l3.994,2.511c.921,.58,2.153,.564,2.994-.128,1.511-1.244,.543-2.736,.173-3.071-.441-.4-4.071-3.83-9.102-4.138-3.232,0-5.861,2.627-5.861,5.856,0,2.521,1.607,4.753,4.016,5.559,2.803,.887,5.362,1.198,7.573,1.198,4.728,0,7.863-1.423,8.382-1.676,1.217-.44,2.029-1.592,2.029-2.891,0-.955-.432-1.838-1.185-2.425Z"/>
</svg>
